<svg xmlns="http://www.w3.org/2000/svg" width="119.775" height="130.865" viewBox="0 0 119.775 130.865"><g transform="translate(-40 -24)"><path d="M274.617,208H248v31.053h26.617Z" transform="translate(-150.33 -132.985)" fill="#fec9a3"/><path d="M274.617,217.9V208H248v9.9A27.683,27.683,0,0,0,274.617,217.9Z" transform="translate(-150.33 -132.985)" fill="#feb784"/><path d="M246.106,259.327v63.215H184V259.327L201.744,256a13.308,13.308,0,0,0,26.617,0Z" transform="translate(-104.075 -167.676)" fill="#3d4d63"/><path d="M370.218,104H368v13.308h2.218a6.654,6.654,0,0,0,0-13.308Z" transform="translate(-237.06 -57.819)" fill="#feb784"/><path d="M198.765,104h-.111a6.654,6.654,0,0,0,0,13.308h2.218V104Z" transform="translate(-109.857 -57.819)" fill="#feb784"/><path d="M263.925,43.964V63.927A19.962,19.962,0,0,1,244.7,83.876c-.244.008-.494.014-.74.014A19.964,19.964,0,0,1,224,63.929V43.964a19.964,19.964,0,0,1,17.227-19.774h0a19.963,19.963,0,0,1,22.694,19.774Z" transform="translate(-132.985 -0.002)" fill="#fec9a3"/><path d="M308.844,43.964V63.927a19.962,19.962,0,0,1-19.222,19.949,24.369,24.369,0,0,0,10.35-19.949V46.182A24.438,24.438,0,0,0,286.15,24.19a19.963,19.963,0,0,1,22.694,19.774Z" transform="translate(-177.903 -0.002)" fill="#fec093"/><ellipse cx="3" cy="3.5" rx="3" ry="3.5" transform="translate(98 46)" fill="#7a432a"/><circle cx="3.5" cy="3.5" r="3.5" transform="translate(118 46)" fill="#7a432a"/><path d="M276.129,163.006H272v4.436h4.129a20.743,20.743,0,0,0,10.3-2.52l-2.235-3.832A16.522,16.522,0,0,1,276.129,163.006Z" transform="translate(-167.676 -99.081)" fill="#f7a468"/><path d="M224,62.181V53.308C224,45.958,228.965,40,235.09,40l-.39,1.405A55.733,55.733,0,0,1,224,62.181Z" transform="translate(-132.985 -11.564)" fill="#743b20"/><path d="M350.654,62.181V46.927c0-1.937-2.218-5.449-6.654-6.927v6.654S347.007,56.346,350.654,62.181Z" transform="translate(-219.714 -11.564)" fill="#743b20"/><path d="M257.271,35.09h-24.4A8.872,8.872,0,0,1,224,26.218V24h22.561a15.146,15.146,0,0,1,10.71,4.436Z" transform="translate(-132.985)" fill="#7a432a"/><path d="M245.789,24l7.057,11.09h5.259L251.048,24Z" transform="translate(-148.732)" fill="#8c5137"/><path d="M285.789,24l7.057,11.09h5.259L291.048,24Z" transform="translate(-177.642)" fill="#8c5137"/><path d="M246.106,300.89v54.1H184v-4.78C208.928,340.688,229.406,329.143,246.106,300.89Z" transform="translate(-104.075 -200.12)" fill="#374559"/><path d="M368.633,231.709l-11.325-2.124V216h-11.09A2.218,2.218,0,0,0,344,218.218v75.414h35.489V244.789a13.308,13.308,0,0,0-10.855-13.08Z" transform="translate(-219.714 -138.767)" fill="#ea4a3b"/><path d="M95.489,216H84.4v13.308l-16.058,3.355a13.308,13.308,0,0,0-8.857,6.066L41.822,272.145a11.035,11.035,0,1,0,18.535,11.982l11.09-23.766,8.516-15.526v48.8H97.707V218.218A2.218,2.218,0,0,0,95.489,216Z" transform="translate(-0.038 -138.767)" fill="#ea4a3b"/><path d="M51.09,370.143A11.09,11.09,0,0,1,40,359.053V328H62.181v31.053A11.09,11.09,0,0,1,51.09,370.143Z" transform="translate(0 -219.714)" fill="#f35244"/><g transform="translate(40 88.24)"><path d="M184,368h17.744v4.436H184Z" transform="translate(-144.075 -336.863)" fill="#de4132"/><path d="M184,424h17.744v4.436H184Z" transform="translate(-144.075 -377.337)" fill="#de4132"/><path d="M184,314.218v2.218h17.744V312H184Z" transform="translate(-144.075 -296.39)" fill="#de4132"/><path d="M187.618,256.247v2.15l-4.75.992,18.058,5.753v-4.655Z" transform="translate(-143.257 -256.095)" fill="#de4132"/><path d="M357.308,258.277V255.7L344,260.014v4.663l17.381-5.637Z" transform="translate(-259.714 -255.698)" fill="#de4132"/><path d="M344,368h35.489v4.436H344Z" transform="translate(-259.714 -336.863)" fill="#de4132"/><path d="M379.489,314.173A13.3,13.3,0,0,0,379.3,312H344v4.436h35.489Z" transform="translate(-259.714 -296.39)" fill="#de4132"/><path d="M344,424h35.489v4.436H344Z" transform="translate(-259.714 -377.337)" fill="#de4132"/><path d="M120,372.436h8.194l1.035-2.218L130.445,368H120Z" transform="translate(-97.819 -336.863)" fill="#de4132"/><path d="M49.184,368H40v4.436H62.181V368Z" transform="translate(-40 -336.863)" fill="#de4132"/><path d="M40.99,424H40v4.436H62.181V424Z" transform="translate(-40 -377.337)" fill="#de4132"/></g><path d="M400,352h4.436v39.925H400Z" transform="translate(-260.187 -237.06)" fill="#cf3b2e"/><path d="M72.872,200a7.177,7.177,0,0,0-6.42,3.968L64,208.872v6.654h8.872v-6.654a4.436,4.436,0,0,0,0-8.872Z" transform="translate(-17.346 -127.203)" fill="#feb784"/><path d="M132.361,197.308v17.744a6.656,6.656,0,0,1-6.654,6.654H94.654A6.656,6.656,0,0,1,88,215.053V197.308a6.656,6.656,0,0,1,6.654-6.654H99.09l3.779-5.667a2.218,2.218,0,0,1,1.844-.987h10.935a2.218,2.218,0,0,1,1.844.987l3.779,5.667h4.436A6.659,6.659,0,0,1,132.361,197.308Z" transform="translate(-34.692 -115.639)" fill="#2e3e51"/><path d="M133.937,216.157V233.9a6.656,6.656,0,0,1-6.654,6.654H96.23a6.654,6.654,0,0,1-6.05-3.884c13.075-2.632,31.9-9.391,39.808-26.592A6.651,6.651,0,0,1,133.937,216.157Z" transform="translate(-36.268 -134.488)" fill="#29384a"/><path d="M133.308,242.617a13.308,13.308,0,1,1,13.308-13.308A13.308,13.308,0,0,1,133.308,242.617Z" transform="translate(-57.819 -138.767)" fill="#3d4d63"/><ellipse cx="9" cy="8.5" rx="9" ry="8.5" transform="translate(66 82)" fill="#3086cd"/><circle cx="4.5" cy="4.5" r="4.5" transform="translate(71 86)" fill="#348fd9"/><path d="M145.373,253.92a8.872,8.872,0,1,0,12.547-12.547Z" transform="translate(-76.158 -157.104)" fill="#3086cd"/><path d="M48.872,232A8.872,8.872,0,0,0,40,240.872v17.744H57.744a4.436,4.436,0,0,0,4.436-4.436V236.436A4.436,4.436,0,0,0,57.744,232Z" transform="translate(0 -150.33)" fill="#fec9a3"/><path d="M80.872,232H72a4.436,4.436,0,0,1,4.436,4.436v17.744A4.436,4.436,0,0,1,72,258.617h8.872a4.436,4.436,0,0,0,4.436-4.436V236.436A4.436,4.436,0,0,0,80.872,232Z" transform="translate(-23.128 -150.33)" fill="#fec093"/></g></svg>