<svg xmlns="http://www.w3.org/2000/svg" width="114.775" height="114.775" viewBox="0 0 114.775 114.775"><g transform="translate(-24 -24)"><path d="M95.24,117.937A5.937,5.937,0,0,0,89.3,112H29.937A5.937,5.937,0,0,0,24,117.937v41.557H95.24Z" transform="translate(0 -66.232)" fill="#4db7e5"/><path d="M143.493,112,96,159.493h53.43V117.937A5.937,5.937,0,0,0,143.493,112Z" transform="translate(-54.19 -66.232)" fill="#48add9"/><path d="M24,304v3.958a5.937,5.937,0,0,0,5.937,5.937H89.3a5.937,5.937,0,0,0,5.937-5.937V304Z" transform="translate(0 -210.739)" fill="#e0e0de"/><path d="M147.789,355.873H128L131.958,344h11.873Z" transform="translate(-78.275 -240.845)" fill="#c7c7c5"/><rect width="35" height="8" rx="4" transform="translate(42 115)" fill="#e0e0de"/><g transform="translate(29.937 51.704)"><path d="M0,0H21.313V3.958H0Z" transform="translate(21.931 28.936) rotate(-68.23)" fill="#fff"/><path d="M96.707,200.639,88.792,194.7a1.979,1.979,0,0,1,0-3.166l7.916-5.937,2.375,3.166-5.805,4.354,5.805,4.354Z" transform="translate(-78.106 -173.331)" fill="#fff"/><path d="M189.575,200.639l-2.375-3.166,5.805-4.354-5.805-4.354,2.375-3.166,7.916,5.937a1.979,1.979,0,0,1,0,3.166Z" transform="translate(-152.767 -173.331)" fill="#fff"/><path d="M48,136h3.958v3.958H48Z" transform="translate(-48 -136)" fill="#fff"/><path d="M80,136h3.958v3.958H80Z" transform="translate(-72.084 -136)" fill="#fff"/><path d="M112,136h3.958v3.958H112Z" transform="translate(-96.169 -136)" fill="#fff"/></g><circle cx="6" cy="6" r="6" transform="translate(113 44)" fill="#7a432a"/><circle cx="6" cy="6" r="6" transform="translate(77 44)" fill="#7a432a"/><path d="M249,238.375l-17.51-2.5V224H211.7v11.873L193.385,239.8A11.873,11.873,0,0,0,184,251.408v16.128h75.2V250.129A11.873,11.873,0,0,0,249,238.375Z" transform="translate(-120.422 -150.528)" fill="#fec9a3"/><path d="M307.386,233.894a15.784,15.784,0,0,0,8.4-2.427V224H296v7.468a15.784,15.784,0,0,0,8.4,2.427Z" transform="translate(-204.718 -150.528)" fill="#feb784"/><path d="M259.2,286.255v25.322H184V287.534a11.873,11.873,0,0,1,9.384-11.608L211.7,272a10.507,10.507,0,0,0,19.789,0l11.975,1.709L249,274.5A11.873,11.873,0,0,1,259.2,286.255Z" transform="translate(-120.422 -186.655)" fill="#f35244"/><path d="M240,432h47.493v13.852H240Z" transform="translate(-162.57 -307.077)" fill="#ea4a3b"/><path d="M317.595,291.456v25.322h-56c15.326-8.23,28.681-19.148,40.275-37.868l5.536.792A11.873,11.873,0,0,1,317.595,291.456Z" transform="translate(-178.82 -191.855)" fill="#ea4a3b"/><path d="M409.979,128H408v11.873h1.979a5.937,5.937,0,0,0,0-11.873Z" transform="translate(-289.014 -78.275)" fill="#feb784"/><path d="M239.916,128h-1.979a5.937,5.937,0,0,0,0,11.873h1.979Z" transform="translate(-156.549 -78.275)" fill="#feb784"/><path d="M299.62,65.812V79.664a17.81,17.81,0,0,1-17.149,17.8c-.218.007-.44.012-.661.012A17.811,17.811,0,0,1,264,79.666V65.812A17.811,17.811,0,0,1,279.369,48.17h0A17.81,17.81,0,0,1,299.62,65.812Z" transform="translate(-180.633 -18.065)" fill="#fec9a3"/><path d="M346.4,65.812V79.664a17.81,17.81,0,0,1-17.149,17.8,21.741,21.741,0,0,0,9.234-17.8V67.791A21.8,21.8,0,0,0,326.15,48.17,17.81,17.81,0,0,1,346.4,65.812Z" transform="translate(-227.41 -18.065)" fill="#fec093"/><path d="M277.514,35.873c-.035,0-.066.01-.1.01a6.886,6.886,0,0,0-11.951-5.62,7.91,7.91,0,0,0-15.474,0,6.844,6.844,0,0,0-11.951,5.62c-.034,0-.066-.01-.1-.01a5.937,5.937,0,0,0,0,11.873l1.979,5.937,2.922-8.764a5.9,5.9,0,0,0,8.952-5.088l.405.135a5.912,5.912,0,0,0,11.062,0l.405-.135a5.9,5.9,0,0,0,8.952,5.088l2.922,8.764,1.979-5.937a5.937,5.937,0,0,0,0-11.873Z" transform="translate(-156.549)" fill="#7a432a"/><path d="M323.873,193.013l-.128-1.974c-2.443.159-4.986.238-7.557.238H312v3.958h4.189c2.656,0,5.284-.083,7.812-.245Z" transform="translate(-216.76 -125.72)" fill="#f7a468"/><path d="M424,352h3.958v31.662H424Z" transform="translate(-301.056 -246.866)" fill="#cf3b2e"/><path d="M232,352h3.958v31.662H232Z" transform="translate(-156.549 -246.866)" fill="#cf3b2e"/><path d="M191.916,409.725h5.937l37.6-7.916h7.916l5.937-3.958H259.2V384H249.3l-13.852,5.937L184,393.894v7.916A7.916,7.916,0,0,0,191.916,409.725Z" transform="translate(-120.422 -270.95)" fill="#feb784"/><path d="M251.282,409.725h-5.937l-37.6-7.916h-7.916l-5.937-3.958H184V384h9.894l13.852,5.937,51.451,3.958v7.916A7.916,7.916,0,0,1,251.282,409.725Z" transform="translate(-120.422 -270.95)" fill="#fec9a3"/><circle cx="6" cy="6" r="6" transform="translate(85 50)" fill="#e0e0de"/><circle cx="6" cy="6" r="6" transform="translate(105 50)" fill="#e0e0de"/><path d="M291.614,120a7.907,7.907,0,0,0-7.635,5.937h-4.52a7.916,7.916,0,1,0,0,3.958h4.52A7.9,7.9,0,1,0,291.614,120Zm-19.789,11.873a3.958,3.958,0,1,1,3.958-3.958A3.958,3.958,0,0,1,271.825,131.872Zm19.789,0a3.958,3.958,0,1,1,3.958-3.958A3.958,3.958,0,0,1,291.614,131.872Z" transform="translate(-180.543 -72.252)" fill="#7a432a"/></g></svg>