<svg width="68" height="68" viewBox="0 0 68 68" fill="none" xmlns="http://www.w3.org/2000/svg">
<rect width="68" height="68" rx="10" fill="url(#paint0_linear)"/>
<g filter="url(#filter0_d)">
<path d="M55 44H13C13.4166 40.1248 14.7439 36.4093 16.8692 33.1687C18.5027 30.5961 20.6941 28.4406 23.2743 26.8685L23.9922 26.4643L20.4576 20.3796C20.3337 20.1733 20.2951 19.9253 20.3502 19.69C20.4053 19.4547 20.5497 19.2513 20.7516 19.1244C20.8517 19.0643 20.9625 19.025 21.0775 19.0086C21.1925 18.9923 21.3096 18.9992 21.422 19.029C21.5344 19.0589 21.6399 19.111 21.7326 19.1825C21.8252 19.2539 21.9031 19.3433 21.9618 19.4455L25.5987 25.6909C28.2919 24.597 31.1694 24.0523 34.0683 24.0877C36.919 24.0529 39.7422 24.5962 42.3803 25.6909L46.0028 19.4455C46.0626 19.3426 46.142 19.253 46.2364 19.1819C46.3308 19.1109 46.4382 19.0599 46.5523 19.0319C46.6663 19.004 46.7847 18.9997 46.9005 19.0192C47.0162 19.0388 47.1269 19.0818 47.2261 19.1458C47.3248 19.2088 47.4105 19.2911 47.4781 19.3879C47.5456 19.4848 47.5939 19.5942 47.6199 19.71C47.646 19.8259 47.6495 19.9458 47.6301 20.063C47.6107 20.1801 47.5688 20.2923 47.5069 20.393L43.9724 26.4978L44.8478 26.9929C47.4185 28.6269 49.5905 30.8364 51.199 33.4537C53.2087 36.6422 54.5063 40.2421 55 43.9987V44ZM41.875 36.0056C41.8748 36.2397 41.9199 36.4715 42.0076 36.6879C42.0953 36.9042 42.2239 37.1008 42.3861 37.2664C42.5483 37.4321 42.741 37.5635 42.953 37.6533C43.1651 37.743 43.3924 37.7893 43.6219 37.7895C43.8515 37.7896 44.0789 37.7437 44.2911 37.6543C44.5032 37.5649 44.6961 37.4337 44.8585 37.2683C45.021 37.1029 45.1499 36.9065 45.2379 36.6903C45.3259 36.4741 45.3713 36.2424 45.3715 36.0083C45.3716 35.7742 45.3265 35.5424 45.2387 35.3261C45.1509 35.1099 45.0222 34.9133 44.8599 34.7477C44.6976 34.5821 44.505 34.4508 44.2929 34.3611C44.0808 34.2715 43.8535 34.2253 43.6239 34.2252C43.3943 34.2251 43.167 34.2711 42.9548 34.3606C42.7427 34.4501 42.5499 34.5813 42.3875 34.7468C42.2251 34.9122 42.0963 35.1087 42.0083 35.3249C41.9204 35.5411 41.8751 35.7729 41.875 36.007V36.0056ZM22.6246 36.0056C22.6242 36.4784 22.8081 36.9319 23.1357 37.2664C23.4633 37.601 23.9078 37.7891 24.3715 37.7895C24.8352 37.7898 25.28 37.6024 25.6081 37.2683C25.9362 36.9343 26.1207 36.4811 26.1211 36.0083C26.1214 35.5356 25.9376 35.0821 25.6099 34.7475C25.2823 34.413 24.8378 34.2249 24.3741 34.2245C24.1445 34.2243 23.9172 34.2703 23.705 34.3597C23.4928 34.4491 23.3 34.5802 23.1375 34.7456C22.8094 35.0797 22.6249 35.5329 22.6246 36.0056Z" fill="white"/>
</g>
<defs>
<filter id="filter0_d" x="12" y="19" width="46" height="30" filterUnits="userSpaceOnUse" color-interpolation-filters="sRGB">
<feFlood flood-opacity="0" result="BackgroundImageFix"/>
<feColorMatrix in="SourceAlpha" type="matrix" values="0 0 0 0 0 0 0 0 0 0 0 0 0 0 0 0 0 0 127 0"/>
<feOffset dx="1" dy="3"/>
<feGaussianBlur stdDeviation="1"/>
<feColorMatrix type="matrix" values="0 0 0 0 0 0 0 0 0 0 0 0 0 0 0 0 0 0 0.15 0"/>
<feBlend mode="normal" in2="BackgroundImageFix" result="effect1_dropShadow"/>
<feBlend mode="normal" in="SourceGraphic" in2="effect1_dropShadow" result="shape"/>
</filter>
<linearGradient id="paint0_linear" x1="0" y1="0" x2="68" y2="66" gradientUnits="userSpaceOnUse">
<stop stop-color="#32D1C7"/>
<stop offset="1" stop-color="#1D77B9"/>
</linearGradient>
</defs>
</svg>
