<svg width="72" height="73" viewBox="0 0 72 73" fill="none" xmlns="http://www.w3.org/2000/svg">
<g filter="url(#filter0_d)">
<rect x="1" width="68" height="68" rx="10" fill="url(#paint0_linear)"/>
<g filter="url(#filter1_d)">
<path d="M54.5734 42.9109C54.5579 40.2879 55.7515 38.3111 58.1618 36.8534C56.8137 34.9304 54.7742 33.8728 52.0858 33.6689C49.5403 33.4689 46.7554 35.1458 45.7356 35.1458C44.6579 35.1458 42.1936 33.7382 40.2545 33.7382C36.2528 33.7997 32 36.915 32 43.2532C32 45.1262 32.3438 47.0607 33.0313 49.053C33.9506 51.6759 37.2648 58.1026 40.7219 57.9988C42.5296 57.9564 43.8082 56.7219 46.1605 56.7219C48.4433 56.7219 49.6253 57.9988 51.6416 57.9988C55.1296 57.9488 58.127 52.1067 59 49.476C54.3223 47.2799 54.5734 43.0455 54.5734 42.9109V42.9109ZM50.5137 31.1806C52.4721 28.8653 52.2944 26.7577 52.2365 26C50.506 26.1 48.5052 27.173 47.3657 28.4922C46.1103 29.9075 45.3725 31.6575 45.5309 33.6305C47.4004 33.7728 49.1077 32.8151 50.5137 31.1806V31.1806Z" fill="white"/>
</g>
<g filter="url(#filter2_d)">
<path d="M40 28H6C6.33724 24.8999 7.41171 21.9274 9.13225 19.3349C10.4546 17.2769 12.2285 15.5525 14.3173 14.2948L14.8984 13.9715L12.0371 9.10366C11.9368 8.93862 11.9056 8.74025 11.9502 8.55202C11.9948 8.36379 12.1116 8.20106 12.2751 8.09948C12.3562 8.05145 12.4458 8.01999 12.5389 8.0069C12.6321 7.99382 12.7268 7.99937 12.8178 8.02323C12.9088 8.0471 12.9942 8.08881 13.0692 8.14598C13.1442 8.20316 13.2072 8.27467 13.2548 8.35642L16.1989 13.3527C18.3792 12.4776 20.7086 12.0418 23.0553 12.0702C25.363 12.0423 27.6484 12.477 29.7841 13.3527L32.7166 8.35642C32.765 8.27409 32.8293 8.20238 32.9057 8.14555C32.9821 8.08871 33.069 8.04791 33.1614 8.02555C33.2537 8.00318 33.3496 7.99972 33.4433 8.01536C33.5369 8.03101 33.6266 8.06544 33.7068 8.11661C33.7868 8.16707 33.8561 8.2329 33.9108 8.31036C33.9655 8.38781 34.0045 8.47537 34.0257 8.56803C34.0468 8.66068 34.0496 8.75662 34.0339 8.85037C34.0182 8.94411 33.9843 9.03382 33.9342 9.11437L31.0729 13.9982L31.7816 14.3943C33.8626 15.7016 35.6209 17.4691 36.923 19.563C38.5499 22.1137 39.6004 24.9937 40 27.9989V28ZM29.375 21.6045C29.3749 21.7918 29.4113 21.9772 29.4823 22.1503C29.5533 22.3234 29.6574 22.4806 29.7888 22.6131C29.9201 22.7457 30.076 22.8508 30.2477 22.9226C30.4193 22.9944 30.6033 23.0314 30.7892 23.0316C30.975 23.0317 31.1591 22.995 31.3309 22.9234C31.5026 22.8519 31.6587 22.747 31.7902 22.6147C31.9217 22.4823 32.0261 22.3252 32.0974 22.1523C32.1686 21.9793 32.2054 21.7939 32.2055 21.6067C32.2056 21.4194 32.169 21.234 32.098 21.0609C32.0269 20.8879 31.9227 20.7306 31.7914 20.5982C31.66 20.4657 31.504 20.3606 31.3323 20.2889C31.1607 20.2172 30.9766 20.1802 30.7908 20.1801C30.6049 20.1801 30.4209 20.2169 30.2491 20.2885C30.0774 20.3601 29.9214 20.4651 29.7899 20.5974C29.6584 20.7298 29.5541 20.8869 29.4829 21.0599C29.4117 21.2329 29.3751 21.4183 29.375 21.6056V21.6045ZM13.7913 21.6045C13.791 21.9827 13.9399 22.3455 14.2051 22.6131C14.4703 22.8808 14.8302 23.0313 15.2055 23.0316C15.5808 23.0318 15.9409 22.8819 16.2065 22.6147C16.4722 22.3474 16.6215 21.9848 16.6218 21.6067C16.6221 21.2285 16.4733 20.8656 16.208 20.598C15.9428 20.3304 15.583 20.1799 15.2076 20.1796C15.0218 20.1795 14.8377 20.2162 14.666 20.2877C14.4942 20.3593 14.3381 20.4642 14.2066 20.5965C13.941 20.8637 13.7916 21.2263 13.7913 21.6045V21.6045Z" fill="white"/>
</g>
</g>
<defs>
<filter id="filter0_d" x="0" y="0" width="72" height="73" filterUnits="userSpaceOnUse" color-interpolation-filters="sRGB">
<feFlood flood-opacity="0" result="BackgroundImageFix"/>
<feColorMatrix in="SourceAlpha" type="matrix" values="0 0 0 0 0 0 0 0 0 0 0 0 0 0 0 0 0 0 127 0"/>
<feOffset dx="1" dy="3"/>
<feGaussianBlur stdDeviation="1"/>
<feColorMatrix type="matrix" values="0 0 0 0 0.152941 0 0 0 0 0.643137 0 0 0 0 0.752941 0 0 0 0.25 0"/>
<feBlend mode="normal" in2="BackgroundImageFix" result="effect1_dropShadow"/>
<feBlend mode="normal" in="SourceGraphic" in2="effect1_dropShadow" result="shape"/>
</filter>
<filter id="filter1_d" x="31" y="26" width="31" height="37" filterUnits="userSpaceOnUse" color-interpolation-filters="sRGB">
<feFlood flood-opacity="0" result="BackgroundImageFix"/>
<feColorMatrix in="SourceAlpha" type="matrix" values="0 0 0 0 0 0 0 0 0 0 0 0 0 0 0 0 0 0 127 0"/>
<feOffset dx="1" dy="3"/>
<feGaussianBlur stdDeviation="1"/>
<feColorMatrix type="matrix" values="0 0 0 0 0 0 0 0 0 0 0 0 0 0 0 0 0 0 0.15 0"/>
<feBlend mode="normal" in2="BackgroundImageFix" result="effect1_dropShadow"/>
<feBlend mode="normal" in="SourceGraphic" in2="effect1_dropShadow" result="shape"/>
</filter>
<filter id="filter2_d" x="5" y="8" width="38" height="25" filterUnits="userSpaceOnUse" color-interpolation-filters="sRGB">
<feFlood flood-opacity="0" result="BackgroundImageFix"/>
<feColorMatrix in="SourceAlpha" type="matrix" values="0 0 0 0 0 0 0 0 0 0 0 0 0 0 0 0 0 0 127 0"/>
<feOffset dx="1" dy="3"/>
<feGaussianBlur stdDeviation="1"/>
<feColorMatrix type="matrix" values="0 0 0 0 0 0 0 0 0 0 0 0 0 0 0 0 0 0 0.15 0"/>
<feBlend mode="normal" in2="BackgroundImageFix" result="effect1_dropShadow"/>
<feBlend mode="normal" in="SourceGraphic" in2="effect1_dropShadow" result="shape"/>
</filter>
<linearGradient id="paint0_linear" x1="1" y1="0" x2="69" y2="66" gradientUnits="userSpaceOnUse">
<stop stop-color="#32D1C7"/>
<stop offset="1" stop-color="#1D77B9"/>
</linearGradient>
</defs>
</svg>
