<svg width="68" height="68" viewBox="0 0 68 68" fill="none" xmlns="http://www.w3.org/2000/svg">
<rect width="68" height="68" rx="10" fill="url(#paint0_linear)"/>
<g filter="url(#filter0_d)">
<circle cx="34" cy="34" r="24.5" stroke="white" stroke-width="3"/>
<path d="M34 26.5C41.0585 26.5 47.385 27.4927 51.8941 29.0535C54.1558 29.8364 55.8788 30.7345 57.0068 31.6576C58.1458 32.5898 58.5 33.3897 58.5 34C58.5 34.6103 58.1458 35.4102 57.0068 36.3424C55.8788 37.2655 54.1558 38.1636 51.8941 38.9465C47.385 40.5073 41.0585 41.5 34 41.5C26.9415 41.5 20.615 40.5073 16.1059 38.9465C13.8442 38.1636 12.1212 37.2655 10.9932 36.3424C9.85421 35.4102 9.5 34.6103 9.5 34C9.5 33.3897 9.85421 32.5898 10.9932 31.6576C12.1212 30.7345 13.8442 29.8364 16.1059 29.0535C20.615 27.4927 26.9415 26.5 34 26.5Z" stroke="white" stroke-width="3"/>
<path d="M41.5 34C41.5 41.0585 40.5073 47.385 38.9465 51.8941C38.1636 54.1558 37.2655 55.8788 36.3424 57.0068C35.4102 58.1458 34.6103 58.5 34 58.5C33.3897 58.5 32.5898 58.1458 31.6576 57.0068C30.7345 55.8788 29.8364 54.1558 29.0535 51.8941C27.4927 47.385 26.5 41.0585 26.5 34C26.5 26.9415 27.4927 20.615 29.0535 16.1059C29.8364 13.8442 30.7345 12.1212 31.6576 10.9932C32.5898 9.85421 33.3897 9.5 34 9.5C34.6103 9.5 35.4102 9.85421 36.3424 10.9932C37.2655 12.1212 38.1636 13.8442 38.9465 16.1059C40.5073 20.615 41.5 26.9415 41.5 34Z" stroke="white" stroke-width="3"/>
</g>
<defs>
<filter id="filter0_d" x="7" y="8" width="56" height="57" filterUnits="userSpaceOnUse" color-interpolation-filters="sRGB">
<feFlood flood-opacity="0" result="BackgroundImageFix"/>
<feColorMatrix in="SourceAlpha" type="matrix" values="0 0 0 0 0 0 0 0 0 0 0 0 0 0 0 0 0 0 127 0"/>
<feOffset dx="1" dy="3"/>
<feGaussianBlur stdDeviation="1"/>
<feColorMatrix type="matrix" values="0 0 0 0 0 0 0 0 0 0 0 0 0 0 0 0 0 0 0.15 0"/>
<feBlend mode="normal" in2="BackgroundImageFix" result="effect1_dropShadow"/>
<feBlend mode="normal" in="SourceGraphic" in2="effect1_dropShadow" result="shape"/>
</filter>
<linearGradient id="paint0_linear" x1="0" y1="0" x2="68" y2="66" gradientUnits="userSpaceOnUse">
<stop stop-color="#32D1C7"/>
<stop offset="1" stop-color="#1D77B9"/>
</linearGradient>
</defs>
</svg>
