<svg width="68" height="68" viewBox="0 0 68 68" fill="none" xmlns="http://www.w3.org/2000/svg">
<rect width="68" height="68" rx="10" fill="url(#paint0_linear)"/>
<g filter="url(#filter0_d)">
<path d="M30.4522 14.5437C30.0024 14.5437 29.5998 14.3687 29.2443 14.0187C28.8888 13.6687 28.711 13.2531 28.711 12.7719C28.711 12.2906 28.8888 11.875 29.2443 11.525C29.5998 11.175 30.0024 11 30.4522 11C30.9166 11 31.3374 11.175 31.7146 11.525C32.0919 11.875 32.2805 12.2906 32.2805 12.7719C32.2805 13.2531 32.0919 13.6687 31.7146 14.0187C31.3374 14.3687 30.9166 14.5437 30.4522 14.5437ZM36.8513 14.5437C36.3869 14.5437 35.9734 14.3687 35.6106 14.0187C35.2479 13.6687 35.0665 13.2531 35.0665 12.7719C35.0665 12.2906 35.2479 11.875 35.6106 11.525C35.9734 11.175 36.3869 11 36.8513 11C37.3156 11 37.7291 11.175 38.0919 11.525C38.4547 11.875 38.636 12.2906 38.636 12.7719C38.636 13.2531 38.4547 13.6687 38.0919 14.0187C37.7291 14.3687 37.3156 14.5437 36.8513 14.5437ZM50.4982 49.9812H48.9964V42.85C48.9964 43.4771 48.7062 44.013 48.1258 44.4578C47.5453 44.9026 46.8343 45.125 45.9927 45.125C45.1657 45.125 44.4619 44.9026 43.8815 44.4578C43.3011 44.013 43.0109 43.4771 43.0109 42.85C43.0109 43.4771 42.717 44.013 42.1294 44.4578C41.5417 44.9026 40.8343 45.125 40.0073 45.125C39.1802 45.125 38.4728 44.9026 37.8851 44.4578C37.2975 44.013 37.0036 43.4771 37.0036 42.85C37.0036 43.4771 36.7098 44.013 36.1221 44.4578C35.5345 44.9026 34.8271 45.125 34 45.125C33.1729 45.125 32.4655 44.9026 31.8779 44.4578C31.2902 44.013 30.9964 43.4771 30.9964 42.85C30.9964 43.4771 30.7025 44.013 30.1149 44.4578C29.5272 44.9026 28.8198 45.125 27.9927 45.125C27.1657 45.125 26.4619 44.9026 25.8815 44.4578C25.3011 44.013 25.0109 43.4771 25.0109 42.85C25.0109 43.4771 24.717 44.013 24.1294 44.4578C23.5417 44.9026 22.8343 45.125 22.0073 45.125C21.1802 45.125 20.4728 44.9026 19.8851 44.4578C19.2975 44.013 19.0036 43.4771 19.0036 42.85V49.9812H17.5018C17.081 49.9812 16.7255 50.1271 16.4353 50.4187C16.1451 50.7104 16 51.0677 16 51.4906C16 51.9135 16.1451 52.2708 16.4353 52.5625C16.7255 52.8542 17.081 53 17.5018 53H50.4982C50.919 53 51.2745 52.8542 51.5647 52.5625C51.8549 52.2708 52 51.9135 52 51.4906C52 51.0677 51.8549 50.7104 51.5647 50.4187C51.2745 50.1271 50.919 49.9812 50.4982 49.9812ZM43.0109 40.0281C43.0109 40.6552 43.3011 41.1911 43.8815 41.6359C44.4619 42.0807 45.1657 42.3031 45.9927 42.3031C46.8343 42.3031 47.5453 42.0844 48.1258 41.6469C48.7062 41.2094 48.9964 40.6698 48.9964 40.0281V38.6937C48.9964 38.0667 48.7932 37.5307 48.3869 37.0859C47.9807 36.6411 47.48 36.4187 46.8851 36.4187H21.1584C20.5635 36.4187 20.0556 36.6411 19.6348 37.0859C19.214 37.5307 19.0036 38.0667 19.0036 38.6937V40.0281C19.0036 40.6552 19.2975 41.1911 19.8851 41.6359C20.4728 42.0807 21.1802 42.3031 22.0073 42.3031C22.8343 42.3031 23.5417 42.0807 24.1294 41.6359C24.717 41.1911 25.0109 40.6552 25.0109 40.0281C25.0109 40.6552 25.3011 41.1911 25.8815 41.6359C26.4619 42.0807 27.1657 42.3031 27.9927 42.3031C28.8198 42.3031 29.5272 42.0807 30.1149 41.6359C30.7025 41.1911 30.9964 40.6552 30.9964 40.0281C30.9964 40.6552 31.2902 41.1911 31.8779 41.6359C32.4655 42.0807 33.1729 42.3031 34 42.3031C34.8271 42.3031 35.5345 42.0807 36.1221 41.6359C36.7098 41.1911 37.0036 40.6552 37.0036 40.0281C37.0036 40.6552 37.2975 41.1911 37.8851 41.6359C38.4728 42.0807 39.1802 42.3031 40.0073 42.3031C40.8343 42.3031 41.5417 42.0807 42.1294 41.6359C42.717 41.1911 43.0109 40.6552 43.0109 40.0281ZM43.0109 34.9094V27.5594C43.0109 28.1865 42.717 28.726 42.1294 29.1781C41.5417 29.6302 40.8343 29.8562 40.0073 29.8562C39.1802 29.8562 38.4728 29.6302 37.8851 29.1781C37.2975 28.726 37.0036 28.1865 37.0036 27.5594C37.0036 28.1865 36.7098 28.726 36.1221 29.1781C35.5345 29.6302 34.8271 29.8562 34 29.8562C33.1729 29.8562 32.4655 29.6302 31.8779 29.1781C31.2902 28.726 30.9964 28.1865 30.9964 27.5594C30.9964 28.1865 30.7025 28.726 30.1149 29.1781C29.5272 29.6302 28.8198 29.8562 27.9927 29.8562C27.1657 29.8562 26.4619 29.6339 25.8815 29.1891C25.3011 28.7443 25.0109 28.201 25.0109 27.5594V34.9094H43.0109ZM34.2829 21.3469H39.3761L37.6784 17.8031V16.5344C37.6784 16.2865 37.5913 16.1625 37.4172 16.1625H36.2201C36.0605 16.1625 35.9807 16.2865 35.9807 16.5344V17.8031L34.2829 21.3469ZM40.5949 21.3469H41.3349C41.8283 21.3469 42.231 21.562 42.5429 21.9922C42.8549 22.4224 43.0109 22.9583 43.0109 23.6V24.7375C43.0109 25.3646 42.717 25.9042 42.1294 26.3562C41.5417 26.8083 40.8343 27.0344 40.0073 27.0344C39.1802 27.0344 38.4728 26.8083 37.8851 26.3562C37.2975 25.9042 37.0036 25.3646 37.0036 24.7375C37.0036 25.3646 36.7098 25.9042 36.1221 26.3562C35.5345 26.8083 34.8271 27.0344 34 27.0344C33.1729 27.0344 32.4655 26.8083 31.8779 26.3562C31.2902 25.9042 30.9964 25.3646 30.9964 24.7375C30.9964 25.3646 30.7025 25.9042 30.1149 26.3562C29.5272 26.8083 28.8198 27.0344 27.9927 27.0344C27.1657 27.0344 26.4619 26.812 25.8815 26.3672C25.3011 25.9224 25.0109 25.3792 25.0109 24.7375V23.6C25.0109 22.9729 25.185 22.4406 25.5333 22.0031C25.8815 21.5656 26.3023 21.3469 26.7956 21.3469H29.0157V18.5469H28.0363V16.0531C28.0363 15.8927 28.1342 15.7104 28.3301 15.5062C28.526 15.3021 28.6965 15.2 28.8416 15.2H32.1282C32.2733 15.2 32.4401 15.3021 32.6288 15.5062C32.8174 15.7104 32.9117 15.8927 32.9117 16.0531V18.5469H31.9541V21.3469H33.0641C33.3253 20.676 33.9274 19.4073 34.8706 17.5406V16.0312C34.8706 15.8708 34.9758 15.6922 35.1862 15.4953C35.3966 15.2984 35.5889 15.2 35.763 15.2H37.896C38.0701 15.2 38.2624 15.2984 38.4728 15.4953C38.6832 15.6922 38.7884 15.8708 38.7884 16.0312V17.5406C39.7316 19.4073 40.3337 20.676 40.5949 21.3469Z" fill="white"/>
</g>
<defs>
<filter id="filter0_d" x="15" y="11" width="40" height="47" filterUnits="userSpaceOnUse" color-interpolation-filters="sRGB">
<feFlood flood-opacity="0" result="BackgroundImageFix"/>
<feColorMatrix in="SourceAlpha" type="matrix" values="0 0 0 0 0 0 0 0 0 0 0 0 0 0 0 0 0 0 127 0"/>
<feOffset dx="1" dy="3"/>
<feGaussianBlur stdDeviation="1"/>
<feColorMatrix type="matrix" values="0 0 0 0 0 0 0 0 0 0 0 0 0 0 0 0 0 0 0.15 0"/>
<feBlend mode="normal" in2="BackgroundImageFix" result="effect1_dropShadow"/>
<feBlend mode="normal" in="SourceGraphic" in2="effect1_dropShadow" result="shape"/>
</filter>
<linearGradient id="paint0_linear" x1="0" y1="0" x2="68" y2="66" gradientUnits="userSpaceOnUse">
<stop stop-color="#FC887B"/>
<stop offset="1" stop-color="#D45079"/>
</linearGradient>
</defs>
</svg>
