<?xml version="1.0" standalone="no"?><svg xmlns="http://www.w3.org/2000/svg" viewBox="0 0 1440 320"><path fill="#0099ff" fill-opacity="0.5" d="M0,192L34.3,192C68.6,192,137,192,206,208C274.3,224,343,256,411,261.3C480,267,549,245,617,218.7C685.7,192,754,160,823,144C891.4,128,960,128,1029,160C1097.1,192,1166,256,1234,288C1302.9,320,1371,320,1406,320L1440,320L1440,0L1405.7,0C1371.4,0,1303,0,1234,0C1165.7,0,1097,0,1029,0C960,0,891,0,823,0C754.3,0,686,0,617,0C548.6,0,480,0,411,0C342.9,0,274,0,206,0C137.1,0,69,0,34,0L0,0Z"></path></svg>